<?xml version="1.0" standalone="no"?><!DOCTYPE svg PUBLIC "-//W3C//DTD SVG 1.1//EN" "http://www.w3.org/Graphics/SVG/1.1/DTD/svg11.dtd"><svg t="1776134764788" class="icon" viewBox="0 0 1085 1024" version="1.1" xmlns="http://www.w3.org/2000/svg" p-id="5757" xmlns:xlink="http://www.w3.org/1999/xlink" width="135.625" height="128"><path d="M898.974451 866.291642l162.414893 8.229863v149.452202l-507.254025-40.386802 253.653306-245.581205v-120.424188L443.176788 976.908358l-185.158763-13.383387L0 943.147516 703.377173 175.35129 863.977815 14.724355 1071.722686 0 280.893362 827.324689l104.332572 8.992374 25.136577-25.162871 397.426114-410.073283 154.737193-159.68037v557.816408l-63.551367 67.074695z" fill="#1C6B36" p-id="5758"></path><path d="M7.15183 82.719322v128.259648h116.506457l-47.065348 52.955091V741.739376L588.500912 180.373347l114.876261-5.022057L863.977815 14.724355l-333.138529 24.452946L195.439517 426.348954l-3.523328-115.323251 228.306381-262.435332L7.15183 82.719322z" fill="#1C6B36" p-id="5759"></path><path d="M420.22257 48.590371l61.184953 35.601387-213.582026 247.13252-75.909308-20.298575 228.306381-262.435332z" fill="#195C34" p-id="5760"></path><path d="M195.439517 426.348954l74.04247-85.480139-1.65649-9.544537-75.909308-20.298575 3.523328 115.323251z" fill="#093F22" p-id="5761"></path><path d="M588.500912 180.373347l44.725227 25.320632h42.358814l27.79222-30.342689-114.876261 5.022057z" fill="#0F597D" p-id="5762"></path><path d="M76.592939 741.739376l84.717627-12.357941L633.226139 205.693979l-44.725227-25.320632L76.592939 741.739376z" fill="#165C31" p-id="5763"></path><path d="M1071.722686 0l13.698909 36.810887-735.507819 769.663063-69.020414 20.850739L1071.722686 0z" fill="#145431" p-id="5764"></path><path d="M413.044447 808.393375l-63.130671-1.919425-69.020414 20.850739 104.332572 8.992374 27.818513-27.923688z" fill="#10512C" p-id="5765"></path><path d="M503.336295 940.702221l304.45233-304.820439v-18.30027L443.176788 976.908358l60.159507-36.206137z" fill="#225E3A" p-id="5766"></path><path d="M962.525818 799.216947l24.190012-20.351162V263.434485l-24.190012-22.033946v557.816408z" fill="#073F22" p-id="5767"></path><path d="M1079.111157 844.336577l-17.721813 30.184928v149.478495l17.721813-34.023777v-145.639646z" fill="#064123" p-id="5768"></path><path d="M925.162768 838.657183l153.948389 3.023752-17.721813 32.84057-162.414893-8.229863 26.188317-27.634459z" fill="#0F5879" p-id="5769"></path></svg>